<?xml version="1.0" encoding="utf-8"?>
<!-- Generator: Adobe Illustrator 23.0.2, SVG Export Plug-In . SVG Version: 6.00 Build 0)  -->
<svg version="1.1" xmlns="http://www.w3.org/2000/svg" xmlns:xlink="http://www.w3.org/1999/xlink" x="0px" y="0px"
	 viewBox="0 0 220 334" style="enable-background:new 0 0 220 334;" xml:space="preserve">
<style type="text/css">
	.st0{enable-background:new    ;}
	.st1{fill:#91A626;}
	.st2{fill:#627114;}
	.st3{fill:#CC3376;}
	.st4{fill-rule:evenodd;clip-rule:evenodd;fill:none;stroke:#721A41;stroke-width:3;stroke-linecap:round;stroke-miterlimit:100;}
	.st5{fill-rule:evenodd;clip-rule:evenodd;fill:none;stroke:#BA919F;stroke-miterlimit:10;}
	.st6{fill:none;stroke:#721A41;stroke-width:3;stroke-linecap:round;stroke-miterlimit:100;}
	.st7{fill:#721A41;}
</style>
<g id="Shape_1_copy_9_1_" class="st0">
	<g id="Shape_1_copy_9">
		<g>
			<path class="st1" d="M157.3,35.2C142.5,29.8,134,65,134,65s13-59.4-8-62c-22.9-2.9-18,63-18,63s-3.2-39.2-17.8-36.5
				C66.8,33.8,87.9,85.3,91,123c2,23.6,7.5,69.5,7.5,69.5l12.9,15.5l10.1-13c0,0,14.3-53,20.2-72.5C153,85,176.4,42.2,157.3,35.2z"
				/>
		</g>
	</g>
</g>
<g id="Shape_1_copy_10_1_" class="st0">
	<g id="Shape_1_copy_10">
		<g>
			<path class="st2" d="M121.5,3c0.3,0,0.7,0,1,0.1c1.9,0.2,3.3,1.2,4.6,3c9,12.8,1.6,57.2-2,73.3c-0.4,1.6,0.6,3.2,2.2,3.6
				c0.2,0.1,0.5,0.1,0.7,0.1c1.4,0,2.6-0.9,2.9-2.3c4.4-18.2,14.5-43.8,22.9-43.8c0.5,0,1,0.1,1.5,0.3c2.2,0.8,3.6,2.1,4.5,4.1
				c4.4,9.4-4.1,32-12.2,53.9c-3.8,10.2-7.8,20.8-10.9,31c-5.9,19.4-19.8,70.6-21.5,76.6l-8.1,10.5l-10.8-12.9
				c-0.8-6.7-5.9-50.1-7.9-72.9c-1-12.3-3.8-25.8-6.5-38.9c-4.5-21.8-9.1-44.4-3.1-53.3c1.4-2.1,3.5-3.4,6.3-4
				c0.3,0,0.5-0.1,0.7-0.1c8.1,0,14.4,26.9,16.1,45.1c0.1,1.6,1.5,2.7,3,2.7c0.1,0,0.2,0,0.3,0c1.6-0.1,2.9-1.6,2.7-3.2
				c-1.3-15.6-2.4-58.7,8.2-70.2C117.7,3.8,119.5,3,121.5,3C121.5,3,121.5,3,121.5,3 M121.5,0C98.6,0,105,76,105,76
				s-4.5-47.8-19.1-47.8c-0.4,0-0.8,0-1.3,0.1c-24.9,4.6-2.5,59.3,0.9,99.4c2.1,25,8,73.9,8,73.9l13.7,16.5l10.8-13.9
				c0,0,15.3-56.4,21.6-77.1c12.1-39.7,37-85.3,16.7-92.7c-0.8-0.3-1.7-0.4-2.5-0.4C139.2,33.9,128,80,128,80s17.3-77.1-5.2-79.9
				C122.4,0,121.9,0,121.5,0L121.5,0z"/>
		</g>
	</g>
</g>
<g id="Shape_1_copy_6_1_" class="st0">
	<g id="Shape_1_copy_6">
		<g>
			<path class="st3" d="M112,152C84.8,88.5,7.5,103.3,7,177c-0.3,40.5,26.6,65.1,50,83c21.8,16.7,47.6,29.3,55.1,35
				c0.1-0.1,0.2-0.2,0.3-0.2c2.2,2.8,5.2,7.4,5.6,12.3c0.7,7.8-4,17-4,17s11.9-8.3,13-18c1.3-11.8-3-12.6,1-21.9
				c9-5.9,20.4-13.6,32-23.1c23-18.8,57.3-44,57-84.5C216.5,102.7,137.9,91,112,152z"/>
		</g>
	</g>
</g>
<g id="Shape_4_1_" class="st0">
	<path class="st4" d="M16,196c0,0,18.3,7.2,44.5,11.6 M68.2,208.8c3,0.4,6.1,0.8,9.3,1.1 M85.9,210.6c4.3,0.3,8.7,0.4,13.1,0.4"/>
</g>
<g id="Shape_4_copy_2_1_" class="st0">
	<path class="st4" d="M210.4,152.8c0,0-15,12-40.9,20 M161.4,175.1c-3.1,0.8-6.4,1.5-9.8,2.2 M143.3,178.6
		c-6.6,0.9-13.7,1.4-21.2,1.4"/>
</g>
<g id="Shape_5_1_" class="st0">
	<path class="st5" d="M149,272"/>
	<path class="st5" d="M98,286"/>
	<path class="st6" d="M98.3,288.3c18.4,11.6,42.9-8.1,50.5-13.9"/>
</g>
<g id="Shape_5_copy_1_" class="st0">
	<path class="st4" d="M110.1,251.8c2.1,0.8,5,1.6,8.8,2.2 M124.3,254.5c1.4,0.1,2.9,0.1,4.5,0.1 M133.2,254.3
		c1.4-0.1,2.8-0.3,4.2-0.5 M142.6,252.7c6.2-1.4,13.1-3.9,20.5-7.8"/>
</g>
<g id="Shape_1_copy_5_1_" class="st0">
	<g id="Shape_1_copy_5">
		<g>
			<path class="st7" d="M54.9,110l0,3c22,0,41.5,15.1,52.3,40.4l2.8,6.5l2.8-6.5c5.3-12.6,13.3-22.9,23-29.8
				c8.9-6.3,19.1-9.7,29.5-9.7c24.8,0,51.5,20.1,51.8,64.2c0.1,17-5.7,32.9-17.9,48.5c-10.6,13.6-24.2,24.7-36.1,34.5
				c-1.6,1.3-3.2,2.6-4.7,3.8c-13.4,11-26.8,19.9-35.7,25.8l-1,0.6l-0.3,1.1c-1.1,4.1-0.6,6.9-0.2,9.9c0.4,2.8,0.9,5.9,0.3,11.3
				c-0.4,3.5-2.3,6.9-4.5,9.8c0.6-2.8,0.9-5.7,0.6-8.6c-0.4-4.3-2.2-8.9-5.5-13.6l-0.3-0.4l-0.4-0.3c-3.1-2.3-8.5-5.4-15.2-9.4
				c-11.7-6.8-27.8-16.2-42.1-27.2c-11.6-8.9-24.8-20-34.9-34.3C8.2,213.8,2.8,197.2,3,178.6c0.1-20.1,5.8-37,16.3-49
				c9.4-10.7,22.1-16.6,35.6-16.6V110 M54.9,110c-28.1,0-54.7,24.1-55,68.6c-0.3,42.7,27.9,68.6,52.4,87.6
				c22.5,17.4,49.1,30.5,57.4,36.6c2.2,3.2,4.6,7.6,5,12.2c0.7,8.7-4.4,19.1-4.4,19.1s13-9.3,14.2-20.2c1.2-11.4-2.1-13.7-0.2-20.7
				c9.8-6.4,22.8-15.1,36-25.9c24.1-19.9,60-46.4,59.7-89.1c-0.3-44.1-26.9-67.2-54.8-67.2c-21.3,0-43.5,13.5-55.2,41.3
				C97.8,123.5,75.9,110,54.9,110L54.9,110z"/>
		</g>
	</g>
</g>
</svg>
