<?xml version="1.0" encoding="utf-8"?>
<!-- Generator: Adobe Illustrator 23.0.2, SVG Export Plug-In . SVG Version: 6.00 Build 0)  -->
<svg version="1.1" id="Layer_1" xmlns="http://www.w3.org/2000/svg" xmlns:xlink="http://www.w3.org/1999/xlink" x="0px" y="0px"
	 viewBox="0 0 500 500" style="enable-background:new 0 0 500 500;" xml:space="preserve">
<style type="text/css">
	.st0{fill:#CD3376;}
	.st1{fill-rule:evenodd;clip-rule:evenodd;fill:#90A63B;}
	.st2{fill:none;stroke:#627232;stroke-width:5;stroke-linejoin:round;}
	.st3{fill:none;stroke:#721B41;stroke-width:5;}
</style>
<path class="st0" d="M0,0v500h500V0H0z M306.7,335.7c-24.8,20.6-49,34.1-56.8,40.9c-8.9-6.9-39.5-22-65.4-42.1
	c-27.8-21.6-59.7-51.2-59.3-99.9c0.6-88.6,92.3-106.4,124.6-30.1c30.8-73.3,124.1-59.3,124.7,29.5
	C374.7,282.8,333.9,313.1,306.7,335.7z"/>
<g id="hollow_beet" transform="translate(1 1.003)">
	<path id="Path_6" class="st1" d="M249,204.3c-4.8-11.8-12-22.5-21.3-31.3c-0.1-0.7-0.1-1.4-0.2-2c-3.6-43-27.4-101.7-0.9-106.6
		c16.6-3.1,20.2,41.6,20.2,41.6s-5.6-75.2,20.4-71.9c23.8,3,9.1,70.7,9.1,70.7s9.7-40.1,26.4-34c20.2,7.5-1.8,51-15.2,91.5
		C271.9,169.3,257.8,183.1,249,204.3z"/>
	<path id="Path_7_1_" class="st2" d="M220.2,167c-5.9-44.4-26.3-99.1,0-104c17.7-3.3,23.1,54.4,23.1,54.4s-7.5-90.1,20.2-86.5
		c25.4,3.2,5.9,91.1,5.9,91.1s14.2-58.6,32-52c20.8,7.6-0.3,51-14.7,92.8"/>
	<path id="Path_8" class="st3" d="M249,204.3c-32.3-76.3-123.9-58.5-124.6,30.1c-0.3,48.7,31.6,78.3,59.3,99.9
		c25.9,20.1,56.5,35.2,65.4,42.1c7.8-6.8,32.1-20.3,56.8-40.9c27.2-22.6,68-52.9,67.6-101.6C373,145,279.7,131,249,204.3z"/>
</g>
</svg>
